<?xml version="1.0" standalone="no"?>
<!DOCTYPE svg PUBLIC "-//W3C//DTD SVG 20010904//EN"
 "http://www.w3.org/TR/2001/REC-SVG-20010904/DTD/svg10.dtd">
<svg version="1.0" xmlns="http://www.w3.org/2000/svg"
 width="160.000000pt" height="160.000000pt" viewBox="0 0 160.000000 160.000000"
 preserveAspectRatio="xMidYMid meet">
<metadata>
Created by potrace 1.14, written by Peter Selinger 2001-2017
</metadata>
<g transform="translate(0.000000,160.000000) scale(0.100000,-0.100000)"
fill="#000000" stroke="none">
<path d="M690 1570 c-284 -33 -525 -226 -624 -498 -30 -84 -50 -257 -41 -352
37 -380 306 -652 684 -692 344 -36 639 121 790 421 53 103 72 196 72 351 1
161 -19 250 -84 375 -59 113 -200 255 -312 313 -137 70 -320 101 -485 82z m54
-201 c14 -11 26 -27 26 -34 0 -10 6 -12 22 -6 35 13 70 1 81 -29 8 -21 20 -28
66 -39 122 -27 197 -110 222 -243 14 -79 2 -157 -36 -223 l-23 -40 72 -1 c80
0 119 -16 160 -64 37 -44 42 -73 19 -112 -21 -36 -57 -47 -93 -28 -18 9 -21
18 -16 43 8 46 -22 79 -73 81 -46 1 -71 -17 -71 -51 0 -34 38 -68 100 -90 72
-25 139 -86 150 -138 26 -118 -57 -215 -185 -215 -80 0 -128 15 -171 52 -64
57 -82 128 -45 178 15 18 28 24 56 23 46 -1 56 -15 48 -70 -5 -36 -2 -45 22
-67 58 -54 140 -42 159 21 13 49 -11 77 -107 122 -91 42 -119 67 -137 124 -10
31 -9 45 3 81 l15 43 -46 -13 c-66 -20 -92 -17 -141 16 -41 28 -53 32 -106 34
-13 1 -21 9 -23 23 -2 12 -12 25 -22 28 -14 4 -18 16 -18 55 -1 28 4 50 11 53
21 8 57 -12 57 -31 0 -10 7 -27 15 -38 13 -17 14 -3 15 130 0 128 -2 147 -14
137 -8 -7 -30 -11 -48 -9 l-33 3 -3 63 c-3 56 -5 62 -25 62 -12 0 -31 3 -42 6
-20 5 -21 1 -20 -133 0 -180 -18 -222 -100 -237 -35 -6 -90 16 -104 42 -15 27
-14 85 1 100 29 29 82 5 72 -34 -2 -10 0 -26 6 -34 20 -30 27 11 29 165 1 142
0 154 -17 159 -10 4 -35 0 -55 -9 -114 -47 -217 26 -142 100 33 33 98 33 196
-1 80 -27 214 -42 239 -25 12 8 12 12 -3 29 -45 50 2 84 57 41z m-84 -644 c0
-22 4 -25 38 -25 36 0 101 -26 133 -52 29 -24 47 -63 59 -124 29 -151 -57
-254 -211 -254 -67 0 -121 20 -144 54 -17 23 -20 66 -5 66 6 0 10 -8 10 -17 0
-20 48 -73 67 -73 17 0 19 355 2 365 -14 9 -61 -35 -55 -51 3 -7 -2 -11 -12
-10 -43 7 -5 69 49 81 24 5 29 12 29 36 0 22 5 29 20 29 15 0 20 -7 20 -25z
m-206 -40 c10 -8 24 -36 31 -62 10 -38 17 -49 36 -52 l24 -4 -25 -6 c-19 -5
-26 -14 -28 -36 -10 -126 -46 -216 -94 -241 -40 -21 -101 -18 -131 6 -36 29
-47 76 -47 208 0 90 -4 120 -17 143 -32 54 -73 32 -93 -52 -8 -33 -8 -33 -9
12 -1 51 14 72 61 83 38 9 73 -8 86 -41 6 -15 12 -90 15 -166 3 -119 6 -141
24 -165 31 -41 80 -38 110 7 32 47 47 104 47 180 1 64 1 65 -31 73 -35 9 -63
41 -63 72 0 47 63 72 104 41z"/>
<path d="M880 966 l0 -204 43 10 c85 19 112 72 105 208 -4 77 -7 92 -32 124
-27 37 -72 66 -101 66 -13 0 -15 -26 -15 -204z"/>
<path d="M669 663 c-1 -23 -1 -106 0 -255 l1 -118 25 0 c44 0 99 29 125 67 19
27 25 52 28 104 4 60 1 77 -23 125 -22 45 -36 60 -69 75 -53 24 -86 25 -87 2z"/>
<path d="M382 668 c-19 -19 -14 -45 14 -67 35 -28 54 -27 54 3 0 62 -36 96
-68 64z"/>
</g>
</svg>
